<?xml version="1.0" standalone="no"?>
<!DOCTYPE svg PUBLIC "-//W3C//DTD SVG 20010904//EN"
 "http://www.w3.org/TR/2001/REC-SVG-20010904/DTD/svg10.dtd">
<svg version="1.0" xmlns="http://www.w3.org/2000/svg"
 width="425.000000pt" height="423.000000pt" viewBox="0 0 425.000000 423.000000"
 preserveAspectRatio="xMidYMid meet">

<g transform="translate(0.000000,423.000000) scale(0.100000,-0.100000)"
fill="#000000" stroke="none">
<path d="M1775 4148 c-49 -4 -109 -6 -132 -3 -23 4 -59 2 -80 -4 -210 -54
-291 -88 -333 -141 -25 -31 -69 -77 -103 -108 -19 -17 -37 -72 -37 -114 0 -15
-4 -30 -10 -33 -16 -10 -12 -83 7 -118 15 -27 18 -67 20 -257 3 -204 6 -294
15 -417 2 -33 10 -49 36 -73 60 -55 104 -65 201 -49 96 16 117 40 164 184 l16
50 -32 32 c-51 52 -133 76 -242 71 -49 -3 -98 -8 -107 -12 -25 -11 -23 8 13
133 39 137 63 184 121 236 56 50 115 69 202 65 134 -6 152 -5 205 19 30 13 80
26 111 28 47 5 64 1 110 -22 29 -15 74 -33 99 -41 26 -7 75 -31 111 -52 47
-29 81 -41 125 -46 32 -4 63 -12 67 -19 13 -20 9 -131 -6 -182 -17 -55 -7 -94
34 -130 28 -25 73 -113 93 -183 9 -30 19 -116 23 -201 6 -140 6 -151 -13 -177
-12 -16 -31 -51 -44 -78 -13 -29 -35 -56 -53 -67 -17 -10 -39 -31 -48 -47 -13
-22 -28 -31 -58 -36 -40 -6 -80 6 -80 24 0 6 -10 10 -21 10 -17 0 -19 -3 -10
-14 30 -36 -14 -116 -63 -116 -11 0 -27 -7 -37 -16 -33 -30 -49 -11 -49 58 0
61 -25 128 -48 128 -4 0 -30 30 -57 67 -38 51 -51 63 -53 49 -2 -11 6 -41 19
-67 12 -27 20 -52 17 -55 -4 -3 -25 -8 -47 -11 -57 -8 -72 7 -64 63 6 49 12
46 -88 64 -58 10 -71 10 -99 -5 -19 -10 -42 -14 -57 -10 -14 3 -30 1 -37 -4
-8 -7 -27 -5 -59 7 -54 19 -67 12 -67 -39 0 -27 -23 -45 -42 -33 -6 4 -8 26
-5 50 6 53 -2 54 -62 14 -44 -30 -94 -39 -106 -20 -10 17 -35 11 -60 -14 l-25
-25 -6 25 c-17 68 -44 -26 -44 -155 0 -74 6 -108 31 -183 42 -130 77 -215 105
-260 13 -21 24 -46 24 -57 0 -22 -41 -71 -169 -203 -80 -82 -88 -87 -150 -102
-62 -16 -173 -58 -250 -95 -18 -9 -45 -31 -59 -49 -38 -49 -117 -81 -221 -88
-85 -6 -199 -32 -239 -53 -11 -6 -32 -11 -46 -11 l-26 0 0 -615 0 -615 518 0
518 0 12 183 c20 284 32 549 40 832 6 238 9 264 27 290 11 17 25 43 31 59 15
41 30 43 49 6 9 -18 63 -78 120 -133 82 -81 120 -111 186 -144 46 -24 94 -43
107 -43 12 0 39 -7 60 -16 46 -20 223 -33 299 -23 104 14 310 117 355 176 7
10 29 29 50 43 20 13 43 36 52 50 22 37 92 110 105 110 6 0 11 -15 11 -33 0
-21 7 -36 19 -44 11 -7 24 -28 29 -47 6 -21 8 -272 4 -650 l-5 -616 831 0 832
0 0 329 0 329 -62 71 c-97 109 -120 140 -144 190 -22 45 -87 98 -179 144 -16
8 -41 26 -54 40 l-23 26 16 129 c28 218 1 300 -137 422 -144 128 -324 171
-483 116 -147 -51 -231 -124 -291 -254 -30 -66 -35 -73 -56 -67 -45 14 -97 56
-153 126 -81 102 -213 232 -229 225 -8 -3 -15 -26 -18 -58 -6 -77 -28 -192
-37 -201 -11 -12 -32 56 -24 76 3 10 1 17 -5 17 -6 0 -11 -4 -11 -10 0 -5 -7
-10 -15 -10 -8 0 -15 6 -15 14 0 8 -7 16 -15 20 -23 8 -18 42 9 59 17 11 26
13 34 5 8 -8 12 -7 15 3 2 8 11 36 20 63 9 26 14 52 11 57 -3 5 4 34 15 64 11
30 36 116 56 192 25 98 42 143 57 156 18 15 19 21 9 43 -21 48 -4 124 37 157
30 25 28 47 -3 47 -30 0 -50 39 -41 80 3 14 9 46 14 71 6 31 21 61 45 90 20
23 37 46 37 49 0 4 27 26 59 50 67 48 68 49 76 122 4 29 13 82 22 118 32 135
16 307 -34 363 -14 14 -17 41 -18 130 -1 99 -4 117 -25 152 -39 65 -68 95
-164 173 -50 41 -107 90 -127 109 -20 19 -58 45 -85 58 -27 14 -60 33 -74 44
-22 17 -45 20 -210 24 -102 2 -225 0 -275 -5z m-158 -1882 c16 -16 -20 -29
-74 -27 -58 2 -80 11 -70 28 7 11 133 10 144 -1z m52 -91 c2 -11 8 -23 15 -28
15 -10 57 1 70 19 7 8 32 15 61 16 46 3 50 1 59 -25 8 -22 7 -34 -4 -51 -8
-12 -24 -37 -35 -55 -11 -19 -39 -57 -62 -86 -40 -50 -49 -55 -117 -67 -10 -2
-23 4 -29 13 -18 29 1 67 46 94 24 13 50 37 58 51 12 23 12 27 -6 40 -10 8
-27 14 -36 14 -10 0 -22 6 -26 14 -5 8 -27 16 -52 18 -57 4 -62 21 -14 41 47
20 67 18 72 -8z m-191 -13 c3 -9 -2 -13 -14 -10 -9 1 -19 9 -22 16 -3 9 2 13
14 10 9 -1 19 -9 22 -16z m-133 -114 c16 -54 14 -78 -5 -78 -14 0 -33 62 -35
115 -3 58 5 80 16 45 4 -14 14 -51 24 -82z m1015 -232 c0 -21 -20 -30 -33 -17
-9 9 -8 14 3 21 21 14 30 12 30 -4z m-74 -301 c9 -14 25 -25 35 -25 26 0 25
-40 -1 -47 -22 -6 -26 -18 -10 -28 6 -3 10 -17 10 -31 0 -27 -24 -33 -34 -8
-5 13 -9 14 -21 4 -7 -6 -12 -17 -9 -24 5 -13 -30 -48 -72 -72 -16 -10 -17
-14 -6 -39 7 -15 10 -36 7 -46 -4 -12 -1 -21 10 -25 22 -9 0 -34 -31 -34 -13
0 -31 -8 -40 -19 -16 -18 -17 -18 -65 5 -43 21 -49 28 -49 54 0 18 5 30 13 30
7 0 17 15 22 32 6 18 20 38 32 44 24 11 56 48 65 75 4 9 24 25 45 36 35 19 38
24 35 56 -3 35 20 87 39 87 5 0 16 -11 25 -25z m1322 -198 c6 -5 12 -17 12
-27 0 -10 5 -22 10 -25 6 -3 10 -12 10 -20 0 -31 -251 5 -314 45 l-31 19 25 9
c29 11 269 10 288 -1z"/>
<path d="M1739 3131 c-76 -11 -99 -48 -63 -100 10 -14 14 -33 10 -51 -11 -57
16 -94 96 -132 40 -20 93 -41 118 -48 55 -15 137 -7 195 20 24 11 56 20 70 20
42 0 65 17 65 50 0 16 5 32 11 36 32 19 -26 99 -116 159 -74 50 -229 68 -386
46z"/>
<path d="M2735 2820 c-8 -14 4 -108 15 -115 10 -6 23 80 15 105 -7 22 -20 26
-30 10z"/>
<path d="M2575 2677 c-9 -47 8 -83 42 -90 70 -14 68 -14 71 24 3 31 -2 42 -30
68 -45 42 -75 41 -83 -2z"/>
</g>
</svg>
